<svg width="112" height="48" viewBox="0 0 112 48" fill="none" xmlns="http://www.w3.org/2000/svg">
<rect width="112" height="48" rx="8" fill="#0F82FF"/>
<path d="M25.544 30V18.3636H32.8395V19.875H27.2997V23.4205H32.4588V24.9261H27.2997V28.4886H32.9077V30H25.544ZM36.9972 24.8182V30H35.2983V21.2727H36.929V22.6932H37.0369C37.2377 22.2311 37.5521 21.8598 37.9801 21.5795C38.4119 21.2992 38.9555 21.1591 39.6108 21.1591C40.2055 21.1591 40.7263 21.2841 41.1733 21.5341C41.6203 21.7803 41.9669 22.1477 42.2131 22.6364C42.4593 23.125 42.5824 23.7292 42.5824 24.4489V30H40.8835V24.6534C40.8835 24.0208 40.7188 23.5265 40.3892 23.1705C40.0597 22.8106 39.607 22.6307 39.0312 22.6307C38.6373 22.6307 38.2869 22.7159 37.9801 22.8864C37.6771 23.0568 37.4366 23.3068 37.2585 23.6364C37.0843 23.9621 36.9972 24.3561 36.9972 24.8182ZM47.6506 30.1932C47.0975 30.1932 46.5975 30.0909 46.1506 29.8864C45.7036 29.678 45.3494 29.3769 45.0881 28.983C44.8305 28.589 44.7017 28.1061 44.7017 27.5341C44.7017 27.0417 44.7964 26.6364 44.9858 26.3182C45.1752 26 45.4309 25.7481 45.7528 25.5625C46.0748 25.3769 46.4347 25.2367 46.8324 25.142C47.2301 25.0473 47.6354 24.9754 48.0483 24.9261C48.571 24.8655 48.9953 24.8163 49.321 24.7784C49.6468 24.7367 49.8835 24.6705 50.0312 24.5795C50.179 24.4886 50.2528 24.3409 50.2528 24.1364V24.0966C50.2528 23.6004 50.1127 23.2159 49.8324 22.9432C49.5559 22.6705 49.143 22.5341 48.5938 22.5341C48.0218 22.5341 47.571 22.661 47.2415 22.9148C46.9157 23.1648 46.6903 23.4432 46.5653 23.75L44.9688 23.3864C45.1581 22.8561 45.4347 22.428 45.7983 22.1023C46.1657 21.7727 46.5881 21.5341 47.0653 21.3864C47.5426 21.2348 48.0445 21.1591 48.571 21.1591C48.9195 21.1591 49.2888 21.2008 49.679 21.2841C50.0729 21.3636 50.4403 21.5114 50.7812 21.7273C51.1259 21.9432 51.4081 22.2519 51.6278 22.6534C51.8475 23.0511 51.9574 23.5682 51.9574 24.2045V30H50.2983V28.8068H50.2301C50.1203 29.0265 49.9555 29.2424 49.7358 29.4545C49.5161 29.6667 49.2339 29.8428 48.8892 29.983C48.5445 30.1231 48.1316 30.1932 47.6506 30.1932ZM48.0199 28.8295C48.4896 28.8295 48.8911 28.7367 49.2244 28.5511C49.5616 28.3655 49.8172 28.1231 49.9915 27.8239C50.1695 27.5208 50.2585 27.197 50.2585 26.8523V25.7273C50.1979 25.7879 50.0805 25.8447 49.9062 25.8977C49.7358 25.947 49.5407 25.9905 49.321 26.0284C49.1013 26.0625 48.8873 26.0947 48.679 26.125C48.4706 26.1515 48.2964 26.1742 48.1562 26.1932C47.8267 26.2348 47.5256 26.3049 47.2528 26.4034C46.9839 26.5019 46.768 26.6439 46.6051 26.8295C46.446 27.0114 46.3665 27.2538 46.3665 27.5568C46.3665 27.9773 46.5218 28.2955 46.8324 28.5114C47.143 28.7235 47.5388 28.8295 48.0199 28.8295ZM54.6065 30V18.3636H56.3054V22.6875H56.4077C56.5062 22.5057 56.6482 22.2955 56.8338 22.0568C57.0194 21.8182 57.277 21.6098 57.6065 21.4318C57.9361 21.25 58.3717 21.1591 58.9134 21.1591C59.6179 21.1591 60.2467 21.3371 60.7997 21.6932C61.3527 22.0492 61.7865 22.5625 62.1009 23.233C62.419 23.9034 62.5781 24.7102 62.5781 25.6534C62.5781 26.5966 62.4209 27.4053 62.1065 28.0795C61.7921 28.75 61.3603 29.267 60.8111 29.6307C60.2618 29.9905 59.6349 30.1705 58.9304 30.1705C58.4001 30.1705 57.9664 30.0814 57.6293 29.9034C57.2959 29.7254 57.0346 29.517 56.8452 29.2784C56.6558 29.0398 56.5099 28.8277 56.4077 28.642H56.2656V30H54.6065ZM56.2713 25.6364C56.2713 26.25 56.3603 26.7879 56.5384 27.25C56.7164 27.7121 56.974 28.0739 57.3111 28.3352C57.6482 28.5928 58.0611 28.7216 58.5497 28.7216C59.0573 28.7216 59.4815 28.5871 59.8224 28.3182C60.1634 28.0455 60.4209 27.6761 60.5952 27.2102C60.7732 26.7443 60.8622 26.2197 60.8622 25.6364C60.8622 25.0606 60.7751 24.5436 60.6009 24.0852C60.4304 23.6269 60.1728 23.2652 59.8281 23C59.4872 22.7348 59.0611 22.6023 58.5497 22.6023C58.0573 22.6023 57.6406 22.7292 57.2997 22.983C56.9626 23.2367 56.7069 23.5909 56.5327 24.0455C56.3584 24.5 56.2713 25.0303 56.2713 25.6364ZM66.4347 18.3636V30H64.7358V18.3636H66.4347ZM72.7315 30.1761C71.8717 30.1761 71.1312 29.9924 70.5099 29.625C69.8925 29.2538 69.4152 28.733 69.0781 28.0625C68.7448 27.3883 68.5781 26.5985 68.5781 25.6932C68.5781 24.7992 68.7448 24.0114 69.0781 23.3295C69.4152 22.6477 69.8849 22.1155 70.4872 21.733C71.0933 21.3504 71.8016 21.1591 72.6122 21.1591C73.1046 21.1591 73.5819 21.2405 74.044 21.4034C74.5062 21.5663 74.9209 21.822 75.2884 22.1705C75.6558 22.5189 75.9455 22.9716 76.1577 23.5284C76.3698 24.0814 76.4759 24.7538 76.4759 25.5455V26.1477H69.5384V24.875H74.8111C74.8111 24.428 74.7202 24.0322 74.5384 23.6875C74.3565 23.339 74.1009 23.0644 73.7713 22.8636C73.4455 22.6629 73.063 22.5625 72.6236 22.5625C72.1463 22.5625 71.7296 22.6799 71.3736 22.9148C71.0213 23.1458 70.7486 23.4489 70.5554 23.8239C70.366 24.1951 70.2713 24.5985 70.2713 25.0341V26.0284C70.2713 26.6117 70.3736 27.108 70.5781 27.517C70.7865 27.9261 71.0762 28.2386 71.4474 28.4545C71.8187 28.6667 72.2524 28.7727 72.7486 28.7727C73.0705 28.7727 73.3641 28.7273 73.6293 28.6364C73.8944 28.5417 74.1236 28.4015 74.3168 28.2159C74.5099 28.0303 74.6577 27.8011 74.7599 27.5284L76.3679 27.8182C76.2391 28.2917 76.008 28.7064 75.6747 29.0625C75.3452 29.4148 74.9304 29.6894 74.4304 29.8864C73.9342 30.0795 73.3679 30.1761 72.7315 30.1761ZM81.8778 30.1705C81.1733 30.1705 80.5445 29.9905 79.9915 29.6307C79.4422 29.267 79.0104 28.75 78.696 28.0795C78.3854 27.4053 78.2301 26.5966 78.2301 25.6534C78.2301 24.7102 78.3873 23.9034 78.7017 23.233C79.0199 22.5625 79.4555 22.0492 80.0085 21.6932C80.5616 21.3371 81.1884 21.1591 81.8892 21.1591C82.4309 21.1591 82.8665 21.25 83.196 21.4318C83.5294 21.6098 83.7869 21.8182 83.9688 22.0568C84.1544 22.2955 84.2983 22.5057 84.4006 22.6875H84.5028V18.3636H86.2017V30H84.5426V28.642H84.4006C84.2983 28.8277 84.1506 29.0398 83.9574 29.2784C83.768 29.517 83.5066 29.7254 83.1733 29.9034C82.84 30.0814 82.4081 30.1705 81.8778 30.1705ZM82.2528 28.7216C82.7415 28.7216 83.1544 28.5928 83.4915 28.3352C83.8324 28.0739 84.09 27.7121 84.2642 27.25C84.4422 26.7879 84.5312 26.25 84.5312 25.6364C84.5312 25.0303 84.4441 24.5 84.2699 24.0455C84.0956 23.5909 83.84 23.2367 83.5028 22.983C83.1657 22.7292 82.7491 22.6023 82.2528 22.6023C81.7415 22.6023 81.3153 22.7348 80.9744 23C80.6335 23.2652 80.3759 23.6269 80.2017 24.0852C80.0313 24.5436 79.946 25.0606 79.946 25.6364C79.946 26.2197 80.0331 26.7443 80.2074 27.2102C80.3816 27.6761 80.6392 28.0455 80.9801 28.3182C81.3248 28.5871 81.7491 28.7216 82.2528 28.7216Z" fill="white"/>
</svg>
