<svg width="48" height="48" viewBox="0 0 48 48" fill="none" xmlns="http://www.w3.org/2000/svg">
<path d="M18.4 31H29.575L27.475 28.9C26.9917 29.25 26.4542 29.5208 25.8625 29.7125C25.2708 29.9042 24.65 30 24 30C23.35 30 22.7292 29.9 22.1375 29.7C21.5458 29.5 21.0083 29.225 20.525 28.875L18.4 31ZM17 29.575L19.1 27.475C18.75 26.9917 18.4792 26.4542 18.2875 25.8625C18.0958 25.2708 18 24.65 18 24C18 23.35 18.1 22.7292 18.3 22.1375C18.5 21.5458 18.775 21.0083 19.125 20.525L17 18.4V29.575ZM20.55 26.025L22.6 24L20.55 21.975C20.3667 22.275 20.2292 22.5917 20.1375 22.925C20.0458 23.2583 20 23.6167 20 24C20 24.3833 20.0458 24.7417 20.1375 25.075C20.2292 25.4083 20.3667 25.725 20.55 26.025ZM24 28C24.3833 28 24.7417 27.9542 25.075 27.8625C25.4083 27.7708 25.725 27.6333 26.025 27.45L24 25.4L21.95 27.45C22.25 27.6333 22.5708 27.7708 22.9125 27.8625C23.2542 27.9542 23.6167 28 24 28ZM24 22.575L26.025 20.55C25.725 20.3667 25.4083 20.2292 25.075 20.1375C24.7417 20.0458 24.3833 20 24 20C23.6167 20 23.2583 20.0458 22.925 20.1375C22.5917 20.2292 22.275 20.3667 21.975 20.55L24 22.575ZM27.45 26.025C27.6333 25.725 27.7708 25.4083 27.8625 25.075C27.9542 24.7417 28 24.3833 28 24C28 23.6167 27.9542 23.2542 27.8625 22.9125C27.7708 22.5708 27.6333 22.25 27.45 21.95L25.425 23.975L27.45 26.025ZM31 29.575V18.4L28.875 20.525C29.225 21.0083 29.5 21.5458 29.7 22.1375C29.9 22.7292 30 23.35 30 24C30 24.65 29.9042 25.2708 29.7125 25.8625C29.5208 26.4542 29.25 26.9917 28.9 27.475L31 29.575ZM27.475 19.125L29.6 17H18.425L20.525 19.1C21.0083 18.75 21.5458 18.4792 22.1375 18.2875C22.7292 18.0958 23.35 18 24 18C24.65 18 25.2708 18.1 25.8625 18.3C26.4542 18.5 26.9917 18.775 27.475 19.125ZM17 33C16.45 33 15.9792 32.8042 15.5875 32.4125C15.1958 32.0208 15 31.55 15 31V17C15 16.45 15.1958 15.9792 15.5875 15.5875C15.9792 15.1958 16.45 15 17 15H31C31.55 15 32.0208 15.1958 32.4125 15.5875C32.8042 15.9792 33 16.45 33 17V31C33 31.55 32.8042 32.0208 32.4125 32.4125C32.0208 32.8042 31.55 33 31 33H17Z" fill="#0F82FF"/>
</svg>
