<svg width="88" height="48" viewBox="0 0 88 48" fill="none" xmlns="http://www.w3.org/2000/svg">
<path d="M13.544 30V18.3636H20.8395V19.875H15.2997V23.4205H20.4588V24.9261H15.2997V28.4886H20.9077V30H13.544ZM24.9972 24.8182V30H23.2983V21.2727H24.929V22.6932H25.0369C25.2377 22.2311 25.5521 21.8598 25.9801 21.5795C26.4119 21.2992 26.9555 21.1591 27.6108 21.1591C28.2055 21.1591 28.7263 21.2841 29.1733 21.5341C29.6203 21.7803 29.9669 22.1477 30.2131 22.6364C30.4593 23.125 30.5824 23.7292 30.5824 24.4489V30H28.8835V24.6534C28.8835 24.0208 28.7188 23.5265 28.3892 23.1705C28.0597 22.8106 27.607 22.6307 27.0312 22.6307C26.6373 22.6307 26.2869 22.7159 25.9801 22.8864C25.6771 23.0568 25.4366 23.3068 25.2585 23.6364C25.0843 23.9621 24.9972 24.3561 24.9972 24.8182ZM35.6506 30.1932C35.0975 30.1932 34.5975 30.0909 34.1506 29.8864C33.7036 29.678 33.3494 29.3769 33.0881 28.983C32.8305 28.589 32.7017 28.1061 32.7017 27.5341C32.7017 27.0417 32.7964 26.6364 32.9858 26.3182C33.1752 26 33.4309 25.7481 33.7528 25.5625C34.0748 25.3769 34.4347 25.2367 34.8324 25.142C35.2301 25.0473 35.6354 24.9754 36.0483 24.9261C36.571 24.8655 36.9953 24.8163 37.321 24.7784C37.6468 24.7367 37.8835 24.6705 38.0312 24.5795C38.179 24.4886 38.2528 24.3409 38.2528 24.1364V24.0966C38.2528 23.6004 38.1127 23.2159 37.8324 22.9432C37.5559 22.6705 37.143 22.5341 36.5938 22.5341C36.0218 22.5341 35.571 22.661 35.2415 22.9148C34.9157 23.1648 34.6903 23.4432 34.5653 23.75L32.9688 23.3864C33.1581 22.8561 33.4347 22.428 33.7983 22.1023C34.1657 21.7727 34.5881 21.5341 35.0653 21.3864C35.5426 21.2348 36.0445 21.1591 36.571 21.1591C36.9195 21.1591 37.2888 21.2008 37.679 21.2841C38.0729 21.3636 38.4403 21.5114 38.7812 21.7273C39.1259 21.9432 39.4081 22.2519 39.6278 22.6534C39.8475 23.0511 39.9574 23.5682 39.9574 24.2045V30H38.2983V28.8068H38.2301C38.1203 29.0265 37.9555 29.2424 37.7358 29.4545C37.5161 29.6667 37.2339 29.8428 36.8892 29.983C36.5445 30.1231 36.1316 30.1932 35.6506 30.1932ZM36.0199 28.8295C36.4896 28.8295 36.8911 28.7367 37.2244 28.5511C37.5616 28.3655 37.8172 28.1231 37.9915 27.8239C38.1695 27.5208 38.2585 27.197 38.2585 26.8523V25.7273C38.1979 25.7879 38.0805 25.8447 37.9062 25.8977C37.7358 25.947 37.5407 25.9905 37.321 26.0284C37.1013 26.0625 36.8873 26.0947 36.679 26.125C36.4706 26.1515 36.2964 26.1742 36.1562 26.1932C35.8267 26.2348 35.5256 26.3049 35.2528 26.4034C34.9839 26.5019 34.768 26.6439 34.6051 26.8295C34.446 27.0114 34.3665 27.2538 34.3665 27.5568C34.3665 27.9773 34.5218 28.2955 34.8324 28.5114C35.143 28.7235 35.5388 28.8295 36.0199 28.8295ZM42.6065 30V18.3636H44.3054V22.6875H44.4077C44.5062 22.5057 44.6482 22.2955 44.8338 22.0568C45.0194 21.8182 45.277 21.6098 45.6065 21.4318C45.9361 21.25 46.3717 21.1591 46.9134 21.1591C47.6179 21.1591 48.2467 21.3371 48.7997 21.6932C49.3527 22.0492 49.7865 22.5625 50.1009 23.233C50.419 23.9034 50.5781 24.7102 50.5781 25.6534C50.5781 26.5966 50.4209 27.4053 50.1065 28.0795C49.7921 28.75 49.3603 29.267 48.8111 29.6307C48.2618 29.9905 47.6349 30.1705 46.9304 30.1705C46.4001 30.1705 45.9664 30.0814 45.6293 29.9034C45.2959 29.7254 45.0346 29.517 44.8452 29.2784C44.6558 29.0398 44.5099 28.8277 44.4077 28.642H44.2656V30H42.6065ZM44.2713 25.6364C44.2713 26.25 44.3603 26.7879 44.5384 27.25C44.7164 27.7121 44.974 28.0739 45.3111 28.3352C45.6482 28.5928 46.0611 28.7216 46.5497 28.7216C47.0573 28.7216 47.4815 28.5871 47.8224 28.3182C48.1634 28.0455 48.4209 27.6761 48.5952 27.2102C48.7732 26.7443 48.8622 26.2197 48.8622 25.6364C48.8622 25.0606 48.7751 24.5436 48.6009 24.0852C48.4304 23.6269 48.1728 23.2652 47.8281 23C47.4872 22.7348 47.0611 22.6023 46.5497 22.6023C46.0573 22.6023 45.6406 22.7292 45.2997 22.983C44.9626 23.2367 44.7069 23.5909 44.5327 24.0455C44.3584 24.5 44.2713 25.0303 44.2713 25.6364ZM54.4347 18.3636V30H52.7358V18.3636H54.4347ZM60.7315 30.1761C59.8717 30.1761 59.1312 29.9924 58.5099 29.625C57.8925 29.2538 57.4152 28.733 57.0781 28.0625C56.7448 27.3883 56.5781 26.5985 56.5781 25.6932C56.5781 24.7992 56.7448 24.0114 57.0781 23.3295C57.4152 22.6477 57.8849 22.1155 58.4872 21.733C59.0933 21.3504 59.8016 21.1591 60.6122 21.1591C61.1046 21.1591 61.5819 21.2405 62.044 21.4034C62.5062 21.5663 62.9209 21.822 63.2884 22.1705C63.6558 22.5189 63.9455 22.9716 64.1577 23.5284C64.3698 24.0814 64.4759 24.7538 64.4759 25.5455V26.1477H57.5384V24.875H62.8111C62.8111 24.428 62.7202 24.0322 62.5384 23.6875C62.3565 23.339 62.1009 23.0644 61.7713 22.8636C61.4455 22.6629 61.063 22.5625 60.6236 22.5625C60.1463 22.5625 59.7296 22.6799 59.3736 22.9148C59.0213 23.1458 58.7486 23.4489 58.5554 23.8239C58.366 24.1951 58.2713 24.5985 58.2713 25.0341V26.0284C58.2713 26.6117 58.3736 27.108 58.5781 27.517C58.7865 27.9261 59.0762 28.2386 59.4474 28.4545C59.8187 28.6667 60.2524 28.7727 60.7486 28.7727C61.0705 28.7727 61.3641 28.7273 61.6293 28.6364C61.8944 28.5417 62.1236 28.4015 62.3168 28.2159C62.5099 28.0303 62.6577 27.8011 62.7599 27.5284L64.3679 27.8182C64.2391 28.2917 64.008 28.7064 63.6747 29.0625C63.3452 29.4148 62.9304 29.6894 62.4304 29.8864C61.9342 30.0795 61.3679 30.1761 60.7315 30.1761ZM69.8778 30.1705C69.1733 30.1705 68.5445 29.9905 67.9915 29.6307C67.4422 29.267 67.0104 28.75 66.696 28.0795C66.3854 27.4053 66.2301 26.5966 66.2301 25.6534C66.2301 24.7102 66.3873 23.9034 66.7017 23.233C67.0199 22.5625 67.4555 22.0492 68.0085 21.6932C68.5616 21.3371 69.1884 21.1591 69.8892 21.1591C70.4309 21.1591 70.8665 21.25 71.196 21.4318C71.5294 21.6098 71.7869 21.8182 71.9688 22.0568C72.1544 22.2955 72.2983 22.5057 72.4006 22.6875H72.5028V18.3636H74.2017V30H72.5426V28.642H72.4006C72.2983 28.8277 72.1506 29.0398 71.9574 29.2784C71.768 29.517 71.5066 29.7254 71.1733 29.9034C70.84 30.0814 70.4081 30.1705 69.8778 30.1705ZM70.2528 28.7216C70.7415 28.7216 71.1544 28.5928 71.4915 28.3352C71.8324 28.0739 72.09 27.7121 72.2642 27.25C72.4422 26.7879 72.5312 26.25 72.5312 25.6364C72.5312 25.0303 72.4441 24.5 72.2699 24.0455C72.0956 23.5909 71.84 23.2367 71.5028 22.983C71.1657 22.7292 70.7491 22.6023 70.2528 22.6023C69.7415 22.6023 69.3153 22.7348 68.9744 23C68.6335 23.2652 68.3759 23.6269 68.2017 24.0852C68.0313 24.5436 67.946 25.0606 67.946 25.6364C67.946 26.2197 68.0331 26.7443 68.2074 27.2102C68.3816 27.6761 68.6392 28.0455 68.9801 28.3182C69.3248 28.5871 69.7491 28.7216 70.2528 28.7216Z" fill="#0F82FF"/>
</svg>
