<svg width="60" height="48" viewBox="0 0 60 48" fill="none" xmlns="http://www.w3.org/2000/svg">
<rect x="8.5" y="8.5" width="51" height="31" rx="15.5" fill="white" stroke="#6C798B"/>
<rect x="11" y="11" width="26" height="26" rx="13" fill="#2E3037"/>
<path d="M19.1001 30.3C18.7135 30.6866 18.0867 30.6866 17.7001 30.3C17.3135 29.9134 17.3135 29.2866 17.7001 28.9L22.6001 24L17.7001 19.1C17.3135 18.7134 17.3135 18.0866 17.7001 17.7C18.0867 17.3134 18.7135 17.3134 19.1001 17.7L24.0001 22.6L28.9001 17.7C29.2867 17.3134 29.9135 17.3134 30.3001 17.7C30.6867 18.0866 30.6867 18.7134 30.3001 19.1L25.4001 24L30.3001 28.9C30.6867 29.2866 30.6867 29.9134 30.3001 30.3C29.9135 30.6866 29.2867 30.6866 28.9001 30.3L24.0001 25.4L19.1001 30.3Z" fill="white"/>
</svg>
