<svg width="200" height="76" viewBox="0 0 200 76" fill="none" xmlns="http://www.w3.org/2000/svg">
<rect x="0.5" y="0.5" width="199" height="55" rx="3.5" stroke="#6C798B"/>
<path d="M16.9588 20V11.2727H18.2756V18.8665H22.2301V20H16.9588ZM25.7848 20.1449C25.37 20.1449 24.995 20.0682 24.6598 19.9148C24.3246 19.7585 24.0589 19.5327 23.8629 19.2372C23.6697 18.9418 23.5732 18.5795 23.5732 18.1506C23.5732 17.7812 23.6442 17.4773 23.7862 17.2386C23.9283 17 24.12 16.8111 24.3615 16.6719C24.603 16.5327 24.8729 16.4276 25.1712 16.3565C25.4695 16.2855 25.7734 16.2315 26.0831 16.1946C26.4751 16.1491 26.7933 16.1122 27.0376 16.0838C27.282 16.0526 27.4595 16.0028 27.5703 15.9347C27.6811 15.8665 27.7365 15.7557 27.7365 15.6023V15.5724C27.7365 15.2003 27.6314 14.9119 27.4212 14.7074C27.2138 14.5028 26.9041 14.4006 26.4922 14.4006C26.0632 14.4006 25.7251 14.4957 25.478 14.6861C25.2337 14.8736 25.0646 15.0824 24.9709 15.3125L23.7734 15.0398C23.9155 14.642 24.1229 14.321 24.3956 14.0767C24.6712 13.8295 24.9879 13.6506 25.3459 13.5398C25.7038 13.4261 26.0803 13.3693 26.4751 13.3693C26.7365 13.3693 27.0135 13.4006 27.3061 13.4631C27.6016 13.5227 27.8771 13.6335 28.1328 13.7955C28.3913 13.9574 28.603 14.1889 28.7678 14.4901C28.9325 14.7884 29.0149 15.1761 29.0149 15.6534V20H27.7706V19.1051H27.7195C27.6371 19.2699 27.5135 19.4318 27.3487 19.5909C27.1839 19.75 26.9723 19.8821 26.7138 19.9872C26.4553 20.0923 26.1456 20.1449 25.7848 20.1449ZM26.0618 19.1222C26.4141 19.1222 26.7152 19.0526 26.9652 18.9134C27.218 18.7741 27.4098 18.5923 27.5405 18.3679C27.674 18.1406 27.7408 17.8977 27.7408 17.6392V16.7955C27.6953 16.8409 27.6072 16.8835 27.4766 16.9233C27.3487 16.9602 27.2024 16.9929 27.0376 17.0213C26.8729 17.0469 26.7124 17.071 26.5561 17.0938C26.3999 17.1136 26.2692 17.1307 26.1641 17.1449C25.9169 17.1761 25.6911 17.2287 25.4865 17.3026C25.2848 17.3764 25.1229 17.483 25.0007 17.6222C24.8814 17.7585 24.8217 17.9403 24.8217 18.1676C24.8217 18.483 24.9382 18.7216 25.1712 18.8835C25.4041 19.0426 25.701 19.1222 26.0618 19.1222ZM31.0643 20V11.2727H32.3384V14.5156H32.4151C32.489 14.3793 32.5955 14.2216 32.7347 14.0426C32.8739 13.8636 33.0671 13.7074 33.3143 13.5739C33.5614 13.4375 33.8881 13.3693 34.2944 13.3693C34.8228 13.3693 35.2944 13.5028 35.7092 13.7699C36.1239 14.0369 36.4492 14.4219 36.685 14.9247C36.9237 15.4276 37.043 16.0327 37.043 16.7401C37.043 17.4474 36.9251 18.054 36.6893 18.5597C36.4535 19.0625 36.1296 19.4503 35.7177 19.723C35.3058 19.9929 34.8356 20.1278 34.3072 20.1278C33.9094 20.1278 33.5842 20.0611 33.3313 19.9276C33.0813 19.794 32.8853 19.6378 32.7433 19.4588C32.6012 19.2798 32.4918 19.1207 32.4151 18.9815H32.3086V20H31.0643ZM32.3129 16.7273C32.3129 17.1875 32.3796 17.5909 32.5131 17.9375C32.6467 18.2841 32.8398 18.5554 33.0927 18.7514C33.3455 18.9446 33.6552 19.0412 34.0217 19.0412C34.4023 19.0412 34.7205 18.9403 34.9762 18.7386C35.2319 18.5341 35.4251 18.2571 35.5558 17.9077C35.6893 17.5582 35.756 17.1648 35.756 16.7273C35.756 16.2955 35.6907 15.9077 35.56 15.5639C35.4322 15.2202 35.239 14.9489 34.9805 14.75C34.7248 14.5511 34.4052 14.4517 34.0217 14.4517C33.6523 14.4517 33.3398 14.5469 33.0842 14.7372C32.8313 14.9276 32.6396 15.1932 32.5089 15.5341C32.3782 15.875 32.3129 16.2727 32.3129 16.7273ZM41.5447 20.1321C40.8999 20.1321 40.3445 19.9943 39.8786 19.7188C39.4155 19.4403 39.0575 19.0497 38.8047 18.5469C38.5547 18.0412 38.4297 17.4489 38.4297 16.7699C38.4297 16.0994 38.5547 15.5085 38.8047 14.9972C39.0575 14.4858 39.4098 14.0866 39.8615 13.7997C40.3161 13.5128 40.8473 13.3693 41.4553 13.3693C41.8246 13.3693 42.1825 13.4304 42.5291 13.5526C42.8757 13.6747 43.1868 13.8665 43.4624 14.1278C43.7379 14.3892 43.9553 14.7287 44.1143 15.1463C44.2734 15.5611 44.353 16.0653 44.353 16.6591V17.1108H39.1499V16.1562H43.1044C43.1044 15.821 43.0362 15.5241 42.8999 15.2656C42.7635 15.0043 42.5717 14.7983 42.3246 14.6477C42.0803 14.4972 41.7933 14.4219 41.4638 14.4219C41.1058 14.4219 40.7933 14.5099 40.5263 14.6861C40.2621 14.8594 40.0575 15.0866 39.9126 15.3679C39.7706 15.6463 39.6996 15.9489 39.6996 16.2756V17.0213C39.6996 17.4588 39.7763 17.831 39.9297 18.1378C40.0859 18.4446 40.3033 18.679 40.5817 18.8409C40.8601 19 41.1854 19.0795 41.5575 19.0795C41.799 19.0795 42.0192 19.0455 42.218 18.9773C42.4169 18.9062 42.5888 18.8011 42.7337 18.6619C42.8786 18.5227 42.9893 18.3509 43.0661 18.1463L44.272 18.3636C44.1754 18.7187 44.0021 19.0298 43.7521 19.2969C43.505 19.5611 43.1939 19.767 42.8189 19.9148C42.4467 20.0597 42.022 20.1321 41.5447 20.1321ZM47.2908 11.2727V20H46.0167V11.2727H47.2908Z" fill="#536073"/>
<path d="M19.0341 30.3636V42H17.2784V30.3636H19.0341ZM23.4034 36.8182V42H21.7045V33.2727H23.3352V34.6932H23.4432C23.6439 34.2311 23.9583 33.8598 24.3864 33.5795C24.8182 33.2992 25.3617 33.1591 26.017 33.1591C26.6117 33.1591 27.1326 33.2841 27.5795 33.5341C28.0265 33.7803 28.3731 34.1477 28.6193 34.6364C28.8655 35.125 28.9886 35.7292 28.9886 36.4489V42H27.2898V36.6534C27.2898 36.0208 27.125 35.5265 26.7955 35.1705C26.4659 34.8106 26.0133 34.6307 25.4375 34.6307C25.0436 34.6307 24.6932 34.7159 24.3864 34.8864C24.0833 35.0568 23.8428 35.3068 23.6648 35.6364C23.4905 35.9621 23.4034 36.3561 23.4034 36.8182ZM31.517 45.2727V33.2727H33.1761V34.6875H33.3182C33.4167 34.5057 33.5587 34.2955 33.7443 34.0568C33.9299 33.8182 34.1875 33.6098 34.517 33.4318C34.8466 33.25 35.2822 33.1591 35.8239 33.1591C36.5284 33.1591 37.1572 33.3371 37.7102 33.6932C38.2633 34.0492 38.697 34.5625 39.0114 35.233C39.3295 35.9034 39.4886 36.7102 39.4886 37.6534C39.4886 38.5966 39.3314 39.4053 39.017 40.0795C38.7027 40.75 38.2708 41.267 37.7216 41.6307C37.1723 41.9905 36.5455 42.1705 35.8409 42.1705C35.3106 42.1705 34.8769 42.0814 34.5398 41.9034C34.2064 41.7254 33.9451 41.517 33.7557 41.2784C33.5663 41.0398 33.4205 40.8277 33.3182 40.642H33.2159V45.2727H31.517ZM33.1818 37.6364C33.1818 38.25 33.2708 38.7879 33.4489 39.25C33.6269 39.7121 33.8845 40.0739 34.2216 40.3352C34.5587 40.5928 34.9716 40.7216 35.4602 40.7216C35.9678 40.7216 36.392 40.5871 36.733 40.3182C37.0739 40.0455 37.3314 39.6761 37.5057 39.2102C37.6837 38.7443 37.7727 38.2197 37.7727 37.6364C37.7727 37.0606 37.6856 36.5436 37.5114 36.0852C37.3409 35.6269 37.0833 35.2652 36.7386 35C36.3977 34.7348 35.9716 34.6023 35.4602 34.6023C34.9678 34.6023 34.5511 34.7292 34.2102 34.983C33.8731 35.2367 33.6174 35.5909 33.4432 36.0455C33.2689 36.5 33.1818 37.0303 33.1818 37.6364ZM47.1705 38.3807V33.2727H48.875V42H47.2045V40.4886H47.1136C46.9129 40.9545 46.5909 41.3428 46.1477 41.6534C45.7083 41.9602 45.161 42.1136 44.5057 42.1136C43.9451 42.1136 43.4489 41.9905 43.017 41.7443C42.589 41.4943 42.2519 41.125 42.0057 40.6364C41.7633 40.1477 41.642 39.5436 41.642 38.8239V33.2727H43.3409V38.6193C43.3409 39.214 43.5057 39.6875 43.8352 40.0398C44.1648 40.392 44.5928 40.5682 45.1193 40.5682C45.4375 40.5682 45.7538 40.4886 46.0682 40.3295C46.3864 40.1705 46.6496 39.9299 46.858 39.608C47.0701 39.286 47.1742 38.8769 47.1705 38.3807ZM55.4815 33.2727V34.6364H50.7145V33.2727H55.4815ZM51.9929 31.1818H53.6918V39.4375C53.6918 39.767 53.741 40.0152 53.8395 40.1818C53.938 40.3447 54.0649 40.4564 54.2202 40.517C54.3793 40.5739 54.5516 40.6023 54.7372 40.6023C54.8736 40.6023 54.9929 40.5928 55.0952 40.5739C55.1974 40.5549 55.277 40.5398 55.3338 40.5284L55.6406 41.9318C55.5421 41.9697 55.402 42.0076 55.2202 42.0455C55.0384 42.0871 54.8111 42.1098 54.5384 42.1136C54.0914 42.1212 53.6747 42.0417 53.2884 41.875C52.902 41.7083 52.5895 41.4508 52.3509 41.1023C52.1122 40.7538 51.9929 40.3163 51.9929 39.7898V31.1818Z" fill="#191C21"/>
<path d="M21.7188 65.5653C21.6733 65.1619 21.4858 64.8494 21.1562 64.6278C20.8267 64.4034 20.4119 64.2912 19.9119 64.2912C19.554 64.2912 19.2443 64.348 18.983 64.4616C18.7216 64.5724 18.5185 64.7259 18.3736 64.9219C18.2315 65.1151 18.1605 65.3352 18.1605 65.5824C18.1605 65.7898 18.2088 65.9687 18.3054 66.1193C18.4048 66.2699 18.5341 66.3963 18.6932 66.4986C18.8551 66.598 19.0284 66.6818 19.2131 66.75C19.3977 66.8153 19.5753 66.8693 19.7457 66.9119L20.598 67.1335C20.8764 67.2017 21.1619 67.294 21.4545 67.4105C21.7472 67.527 22.0185 67.6804 22.2685 67.8707C22.5185 68.0611 22.7202 68.2969 22.8736 68.5781C23.0298 68.8594 23.108 69.196 23.108 69.5881C23.108 70.0824 22.9801 70.5213 22.7244 70.9048C22.4716 71.2884 22.1037 71.5909 21.6207 71.8125C21.1406 72.0341 20.5597 72.1449 19.8778 72.1449C19.2244 72.1449 18.6591 72.0412 18.1818 71.8338C17.7045 71.6264 17.331 71.3324 17.0611 70.9517C16.7912 70.5682 16.642 70.1136 16.6136 69.5881H17.9347C17.9602 69.9034 18.0625 70.1662 18.2415 70.3764C18.4233 70.5838 18.6548 70.7386 18.9361 70.8409C19.2202 70.9403 19.5312 70.9901 19.8693 70.9901C20.2415 70.9901 20.5724 70.9318 20.8622 70.8153C21.1548 70.696 21.3849 70.5312 21.5526 70.321C21.7202 70.108 21.804 69.8594 21.804 69.5753C21.804 69.3168 21.7301 69.1051 21.5824 68.9403C21.4375 68.7756 21.2401 68.6392 20.9901 68.5312C20.7429 68.4233 20.4631 68.3281 20.1506 68.2457L19.1193 67.9645C18.4205 67.7741 17.8665 67.4943 17.4574 67.125C17.0511 66.7557 16.848 66.267 16.848 65.6591C16.848 65.1562 16.9844 64.7173 17.2571 64.3423C17.5298 63.9673 17.8991 63.6761 18.3651 63.4688C18.831 63.2585 19.3565 63.1534 19.9418 63.1534C20.5327 63.1534 21.054 63.2571 21.5057 63.4645C21.9602 63.6719 22.3182 63.9574 22.5795 64.321C22.8409 64.6818 22.9773 65.0966 22.9886 65.5653H21.7188ZM28.9755 69.2855V65.4545H30.2539V72H29.0011V70.8665H28.9329C28.7823 71.2159 28.5408 71.5071 28.2085 71.7401C27.8789 71.9702 27.4684 72.0852 26.9769 72.0852C26.5565 72.0852 26.1843 71.9929 25.8604 71.8082C25.5394 71.6207 25.2866 71.3438 25.1019 70.9773C24.9201 70.6108 24.8292 70.1577 24.8292 69.6179V65.4545H26.1033V69.4645C26.1033 69.9105 26.2269 70.2656 26.4741 70.5298C26.7212 70.794 27.0423 70.9261 27.4371 70.9261C27.6758 70.9261 27.913 70.8665 28.1488 70.7472C28.3874 70.6278 28.5849 70.4474 28.7411 70.206C28.9002 69.9645 28.9783 69.6577 28.9755 69.2855ZM32.2159 74.4545V65.4545H33.4602V66.5156H33.5668C33.6406 66.3793 33.7472 66.2216 33.8864 66.0426C34.0256 65.8636 34.2188 65.7074 34.4659 65.5739C34.7131 65.4375 35.0398 65.3693 35.446 65.3693C35.9744 65.3693 36.446 65.5028 36.8608 65.7699C37.2756 66.0369 37.6009 66.4219 37.8366 66.9247C38.0753 67.4276 38.1946 68.0327 38.1946 68.7401C38.1946 69.4474 38.0767 70.054 37.8409 70.5597C37.6051 71.0625 37.2813 71.4503 36.8693 71.723C36.4574 71.9929 35.9872 72.1278 35.4588 72.1278C35.0611 72.1278 34.7358 72.0611 34.483 71.9276C34.233 71.794 34.0369 71.6378 33.8949 71.4588C33.7528 71.2798 33.6435 71.1207 33.5668 70.9815H33.4901V74.4545H32.2159ZM33.4645 68.7273C33.4645 69.1875 33.5313 69.5909 33.6648 69.9375C33.7983 70.2841 33.9915 70.5554 34.2443 70.7514C34.4972 70.9446 34.8068 71.0412 35.1733 71.0412C35.554 71.0412 35.8722 70.9403 36.1278 70.7386C36.3835 70.5341 36.5767 70.2571 36.7074 69.9077C36.8409 69.5582 36.9077 69.1648 36.9077 68.7273C36.9077 68.2955 36.8423 67.9077 36.7116 67.5639C36.5838 67.2202 36.3906 66.9489 36.1321 66.75C35.8764 66.5511 35.5568 66.4517 35.1733 66.4517C34.804 66.4517 34.4915 66.5469 34.2358 66.7372C33.983 66.9276 33.7912 67.1932 33.6605 67.5341C33.5298 67.875 33.4645 68.2727 33.4645 68.7273ZM39.8722 74.4545V65.4545H41.1165V66.5156H41.223C41.2969 66.3793 41.4034 66.2216 41.5426 66.0426C41.6818 65.8636 41.875 65.7074 42.1222 65.5739C42.3693 65.4375 42.696 65.3693 43.1023 65.3693C43.6307 65.3693 44.1023 65.5028 44.517 65.7699C44.9318 66.0369 45.2571 66.4219 45.4929 66.9247C45.7315 67.4276 45.8509 68.0327 45.8509 68.7401C45.8509 69.4474 45.733 70.054 45.4972 70.5597C45.2614 71.0625 44.9375 71.4503 44.5256 71.723C44.1136 71.9929 43.6435 72.1278 43.1151 72.1278C42.7173 72.1278 42.392 72.0611 42.1392 71.9276C41.8892 71.794 41.6932 71.6378 41.5511 71.4588C41.4091 71.2798 41.2997 71.1207 41.223 70.9815H41.1463V74.4545H39.8722ZM41.1207 68.7273C41.1207 69.1875 41.1875 69.5909 41.321 69.9375C41.4545 70.2841 41.6477 70.5554 41.9006 70.7514C42.1534 70.9446 42.4631 71.0412 42.8295 71.0412C43.2102 71.0412 43.5284 70.9403 43.7841 70.7386C44.0398 70.5341 44.233 70.2571 44.3636 69.9077C44.4972 69.5582 44.5639 69.1648 44.5639 68.7273C44.5639 68.2955 44.4986 67.9077 44.3679 67.5639C44.2401 67.2202 44.0469 66.9489 43.7884 66.75C43.5327 66.5511 43.2131 66.4517 42.8295 66.4517C42.4602 66.4517 42.1477 66.5469 41.892 66.7372C41.6392 66.9276 41.4474 67.1932 41.3168 67.5341C41.1861 67.875 41.1207 68.2727 41.1207 68.7273ZM50.2855 72.1321C49.6719 72.1321 49.1364 71.9915 48.679 71.7102C48.2216 71.429 47.8665 71.0355 47.6136 70.5298C47.3608 70.0241 47.2344 69.4332 47.2344 68.7571C47.2344 68.0781 47.3608 67.4844 47.6136 66.9759C47.8665 66.4673 48.2216 66.0724 48.679 65.7912C49.1364 65.5099 49.6719 65.3693 50.2855 65.3693C50.8991 65.3693 51.4347 65.5099 51.892 65.7912C52.3494 66.0724 52.7045 66.4673 52.9574 66.9759C53.2102 67.4844 53.3366 68.0781 53.3366 68.7571C53.3366 69.4332 53.2102 70.0241 52.9574 70.5298C52.7045 71.0355 52.3494 71.429 51.892 71.7102C51.4347 71.9915 50.8991 72.1321 50.2855 72.1321ZM50.2898 71.0625C50.6875 71.0625 51.017 70.9574 51.2784 70.7472C51.5398 70.5369 51.733 70.2571 51.858 69.9077C51.9858 69.5582 52.0497 69.1733 52.0497 68.7528C52.0497 68.3352 51.9858 67.9517 51.858 67.6023C51.733 67.25 51.5398 66.9673 51.2784 66.7543C51.017 66.5412 50.6875 66.4347 50.2898 66.4347C49.8892 66.4347 49.5568 66.5412 49.2926 66.7543C49.0313 66.9673 48.8366 67.25 48.7088 67.6023C48.5838 67.9517 48.5213 68.3352 48.5213 68.7528C48.5213 69.1733 48.5838 69.5582 48.7088 69.9077C48.8366 70.2571 49.0313 70.5369 49.2926 70.7472C49.5568 70.9574 49.8892 71.0625 50.2898 71.0625ZM55.0089 72V65.4545H56.2404V66.4943H56.3086C56.4279 66.142 56.6381 65.8651 56.9393 65.6634C57.2433 65.4588 57.587 65.3565 57.9705 65.3565C58.0501 65.3565 58.1438 65.3594 58.2518 65.3651C58.3626 65.3707 58.4492 65.3778 58.5117 65.3864V66.6051C58.4606 66.5909 58.3697 66.5753 58.239 66.5582C58.1083 66.5384 57.9776 66.5284 57.8469 66.5284C57.5458 66.5284 57.2773 66.5923 57.0415 66.7202C56.8086 66.8452 56.6239 67.0199 56.4876 67.2443C56.3512 67.4659 56.283 67.7187 56.283 68.0028V72H55.0089ZM63.3065 65.4545V66.4773H59.7312V65.4545H63.3065ZM60.69 63.8864H61.9641V70.0781C61.9641 70.3253 62.0011 70.5114 62.0749 70.6364C62.1488 70.7585 62.244 70.8423 62.3604 70.8878C62.4798 70.9304 62.609 70.9517 62.7482 70.9517C62.8505 70.9517 62.94 70.9446 63.0167 70.9304C63.0934 70.9162 63.1531 70.9048 63.1957 70.8963L63.4258 71.9489C63.3519 71.9773 63.2468 72.0057 63.1104 72.0341C62.9741 72.0653 62.8036 72.0824 62.5991 72.0852C62.2638 72.0909 61.9513 72.0312 61.6616 71.9062C61.3718 71.7812 61.1374 71.5881 60.9585 71.3267C60.7795 71.0653 60.69 70.7372 60.69 70.3423V63.8864ZM64.9659 72V65.4545H66.2401V72H64.9659ZM65.6094 64.4446C65.3878 64.4446 65.1974 64.3707 65.0384 64.223C64.8821 64.0724 64.804 63.8935 64.804 63.6861C64.804 63.4759 64.8821 63.2969 65.0384 63.1491C65.1974 62.9986 65.3878 62.9233 65.6094 62.9233C65.831 62.9233 66.0199 62.9986 66.1761 63.1491C66.3352 63.2969 66.4148 63.4759 66.4148 63.6861C66.4148 63.8935 66.3352 64.0724 66.1761 64.223C66.0199 64.3707 65.831 64.4446 65.6094 64.4446ZM69.4783 68.1136V72H68.2042V65.4545H69.4272V66.5199H69.5082C69.6587 66.1733 69.8945 65.8949 70.2156 65.6847C70.5394 65.4744 70.9471 65.3693 71.4386 65.3693C71.8846 65.3693 72.2752 65.4631 72.6104 65.6506C72.9457 65.8352 73.2056 66.1108 73.3903 66.4773C73.5749 66.8437 73.6673 67.2969 73.6673 67.8366V72H72.3931V67.9901C72.3931 67.5156 72.2695 67.1449 72.0224 66.8778C71.7752 66.608 71.4357 66.473 71.0039 66.473C70.7085 66.473 70.4457 66.5369 70.2156 66.6648C69.9883 66.7926 69.8079 66.9801 69.6744 67.2273C69.5437 67.4716 69.4783 67.767 69.4783 68.1136ZM78.3704 74.5909C77.8505 74.5909 77.4031 74.5227 77.0281 74.3864C76.6559 74.25 76.3519 74.0696 76.1161 73.8452C75.8803 73.6207 75.7042 73.375 75.5877 73.108L76.6829 72.6562C76.7596 72.7812 76.8619 72.9134 76.9897 73.0526C77.1204 73.1946 77.2965 73.3153 77.5181 73.4148C77.7425 73.5142 78.0309 73.5639 78.3832 73.5639C78.8661 73.5639 79.2653 73.446 79.5806 73.2102C79.896 72.9773 80.0536 72.6051 80.0536 72.0938V70.8068H79.9727C79.896 70.946 79.7852 71.1009 79.6403 71.2713C79.4982 71.4418 79.3022 71.5895 79.0522 71.7145C78.8022 71.8395 78.4769 71.902 78.0763 71.902C77.5593 71.902 77.0934 71.7812 76.6786 71.5398C76.2667 71.2955 75.94 70.9361 75.6985 70.4616C75.4599 69.9844 75.3406 69.3977 75.3406 68.7017C75.3406 68.0057 75.4585 67.4091 75.6942 66.9119C75.9329 66.4148 76.2596 66.0341 76.6744 65.7699C77.0891 65.5028 77.5593 65.3693 78.0849 65.3693C78.4911 65.3693 78.8192 65.4375 79.0692 65.5739C79.3192 65.7074 79.5138 65.8636 79.6531 66.0426C79.7951 66.2216 79.9045 66.3793 79.9812 66.5156H80.0749V65.4545H81.3235V72.1449C81.3235 72.7074 81.1928 73.169 80.9315 73.5298C80.6701 73.8906 80.3164 74.1577 79.8704 74.331C79.4272 74.5043 78.9272 74.5909 78.3704 74.5909ZM78.3576 70.8452C78.7241 70.8452 79.0337 70.7599 79.2866 70.5895C79.5423 70.4162 79.7354 70.169 79.8661 69.848C79.9996 69.5241 80.0664 69.1364 80.0664 68.6847C80.0664 68.2443 80.0011 67.8565 79.8704 67.5213C79.7397 67.1861 79.5479 66.9247 79.2951 66.7372C79.0423 66.5469 78.7298 66.4517 78.3576 66.4517C77.9741 66.4517 77.6545 66.5511 77.3988 66.75C77.1431 66.946 76.9499 67.2131 76.8192 67.5511C76.6914 67.8892 76.6275 68.267 76.6275 68.6847C76.6275 69.1136 76.6928 69.4901 76.8235 69.8139C76.9542 70.1378 77.1474 70.3906 77.4031 70.5724C77.6616 70.7543 77.9798 70.8452 78.3576 70.8452ZM89.7635 65.4545V66.4773H86.1882V65.4545H89.7635ZM87.147 63.8864H88.4212V70.0781C88.4212 70.3253 88.4581 70.5114 88.532 70.6364C88.6058 70.7585 88.701 70.8423 88.8175 70.8878C88.9368 70.9304 89.0661 70.9517 89.2053 70.9517C89.3075 70.9517 89.397 70.9446 89.4737 70.9304C89.5504 70.9162 89.6101 70.9048 89.6527 70.8963L89.8828 71.9489C89.8089 71.9773 89.7038 72.0057 89.5675 72.0341C89.4311 72.0653 89.2607 72.0824 89.0561 72.0852C88.7209 72.0909 88.4084 72.0312 88.1186 71.9062C87.8288 71.7812 87.5945 71.5881 87.4155 71.3267C87.2365 71.0653 87.147 70.7372 87.147 70.3423V63.8864ZM94.1737 72.1321C93.5288 72.1321 92.9734 71.9943 92.5075 71.7188C92.0444 71.4403 91.6864 71.0497 91.4336 70.5469C91.1836 70.0412 91.0586 69.4489 91.0586 68.7699C91.0586 68.0994 91.1836 67.5085 91.4336 66.9972C91.6864 66.4858 92.0387 66.0866 92.4904 65.7997C92.945 65.5128 93.4762 65.3693 94.0842 65.3693C94.4535 65.3693 94.8114 65.4304 95.158 65.5526C95.5046 65.6747 95.8157 65.8665 96.0913 66.1278C96.3668 66.3892 96.5842 66.7287 96.7433 67.1463C96.9023 67.5611 96.9819 68.0653 96.9819 68.6591V69.1108H91.7788V68.1562H95.7333C95.7333 67.821 95.6651 67.5241 95.5288 67.2656C95.3924 67.0043 95.2006 66.7983 94.9535 66.6477C94.7092 66.4972 94.4222 66.4219 94.0927 66.4219C93.7347 66.4219 93.4222 66.5099 93.1552 66.6861C92.891 66.8594 92.6864 67.0866 92.5415 67.3679C92.3995 67.6463 92.3285 67.9489 92.3285 68.2756V69.0213C92.3285 69.4588 92.4052 69.831 92.5586 70.1378C92.7148 70.4446 92.9322 70.679 93.2106 70.8409C93.489 71 93.8143 71.0795 94.1864 71.0795C94.4279 71.0795 94.6481 71.0455 94.8469 70.9773C95.0458 70.9062 95.2177 70.8011 95.3626 70.6619C95.5075 70.5227 95.6183 70.3509 95.695 70.1463L96.9009 70.3636C96.8043 70.7187 96.631 71.0298 96.381 71.2969C96.1339 71.5611 95.8228 71.767 95.4478 71.9148C95.0756 72.0597 94.6509 72.1321 94.1737 72.1321ZM99.4989 65.4545L100.944 68.0028L102.401 65.4545H103.794L101.753 68.7273L103.811 72H102.418L100.944 69.554L99.4734 72H98.0756L100.113 68.7273L98.1012 65.4545H99.4989ZM108.408 65.4545V66.4773H104.833V65.4545H108.408ZM105.792 63.8864H107.066V70.0781C107.066 70.3253 107.103 70.5114 107.176 70.6364C107.25 70.7585 107.346 70.8423 107.462 70.8878C107.581 70.9304 107.711 70.9517 107.85 70.9517C107.952 70.9517 108.042 70.9446 108.118 70.9304C108.195 70.9162 108.255 70.9048 108.297 70.8963L108.527 71.9489C108.453 71.9773 108.348 72.0057 108.212 72.0341C108.076 72.0653 107.905 72.0824 107.701 72.0852C107.365 72.0909 107.053 72.0312 106.763 71.9062C106.473 71.7812 106.239 71.5881 106.06 71.3267C105.881 71.0653 105.792 70.7372 105.792 70.3423V63.8864Z" fill="#536073"/>
</svg>
