<svg width="360" height="64" viewBox="0 0 360 64" fill="none" xmlns="http://www.w3.org/2000/svg">
<rect width="360" height="64" fill="#FDFBFF"/>
<path d="M17.0625 24.7187V23H29.0625V24.7187H24.0313V39H22.0938V24.7187H17.0625ZM31.8027 39V27H33.6465V39H31.8027ZM32.7402 25C32.3809 25 32.071 24.8776 31.8105 24.6328C31.5553 24.388 31.4277 24.0938 31.4277 23.75C31.4277 23.4063 31.5553 23.112 31.8105 22.8672C32.071 22.6224 32.3809 22.5 32.7402 22.5C33.0996 22.5 33.4069 22.6224 33.6621 22.8672C33.9225 23.112 34.0527 23.4063 34.0527 23.75C34.0527 24.0938 33.9225 24.388 33.6621 24.6328C33.4069 24.8776 33.0996 25 32.7402 25ZM42.2422 27V28.5625H36.0234V27H42.2422ZM37.8359 24.125H39.6797V35.5625C39.6797 36.0833 39.7552 36.474 39.9063 36.7344C40.0625 36.9896 40.2604 37.1615 40.5 37.25C40.7448 37.3333 41.0026 37.375 41.2734 37.375C41.4766 37.375 41.6432 37.3646 41.7734 37.3437C41.9036 37.3177 42.0078 37.2969 42.0859 37.2812L42.4609 38.9375C42.3359 38.9844 42.1615 39.0313 41.9375 39.0781C41.7135 39.1302 41.4297 39.1563 41.0859 39.1563C40.5651 39.1563 40.0547 39.0443 39.5547 38.8203C39.0599 38.5964 38.6484 38.2552 38.3203 37.7969C37.9974 37.3385 37.8359 36.7604 37.8359 36.0625V24.125ZM47.1172 23V39H45.2734V23H47.1172ZM55.5254 39.25C54.3691 39.25 53.3717 38.9948 52.5332 38.4844C51.6999 37.9688 51.0566 37.25 50.6035 36.3281C50.1556 35.401 49.9316 34.3229 49.9316 33.0938C49.9316 31.8646 50.1556 30.7812 50.6035 29.8437C51.0566 28.901 51.6868 28.1667 52.4941 27.6406C53.3066 27.1094 54.2546 26.8438 55.3379 26.8438C55.9629 26.8438 56.5801 26.9479 57.1895 27.1562C57.7988 27.3646 58.3535 27.7031 58.8535 28.1719C59.3535 28.6354 59.752 29.25 60.0488 30.0156C60.3457 30.7812 60.4941 31.724 60.4941 32.8437V33.625H51.2441V32.0312H58.6191C58.6191 31.3542 58.4837 30.75 58.2129 30.2187C57.9473 29.6875 57.5671 29.2682 57.0723 28.9609C56.5827 28.6536 56.0046 28.5 55.3379 28.5C54.6035 28.5 53.9681 28.6823 53.4316 29.0469C52.9004 29.4062 52.4915 29.875 52.2051 30.4531C51.9186 31.0312 51.7754 31.651 51.7754 32.3125V33.375C51.7754 34.2813 51.9316 35.0495 52.2441 35.6797C52.5618 36.3047 53.002 36.7812 53.5645 37.1094C54.127 37.4323 54.7806 37.5938 55.5254 37.5938C56.0098 37.5938 56.4473 37.526 56.8379 37.3906C57.2337 37.25 57.5749 37.0417 57.8613 36.7656C58.1478 36.4844 58.3691 36.1354 58.5254 35.7187L60.3066 36.2188C60.1191 36.8229 59.804 37.3542 59.3613 37.8125C58.9186 38.2656 58.3717 38.6198 57.7207 38.875C57.0697 39.125 56.3379 39.25 55.5254 39.25Z" fill="#191C21"/>
</svg>
