<svg width="360" height="64" viewBox="0 0 360 64" fill="none" xmlns="http://www.w3.org/2000/svg">
<rect width="360" height="64" fill="#FDFBFF"/>
<path d="M22.4 39H33.575L31.475 36.9C30.9917 37.25 30.4542 37.5208 29.8625 37.7125C29.2708 37.9042 28.65 38 28 38C27.35 38 26.7292 37.9 26.1375 37.7C25.5458 37.5 25.0083 37.225 24.525 36.875L22.4 39ZM21 37.575L23.1 35.475C22.75 34.9917 22.4792 34.4542 22.2875 33.8625C22.0958 33.2708 22 32.65 22 32C22 31.35 22.1 30.7292 22.3 30.1375C22.5 29.5458 22.775 29.0083 23.125 28.525L21 26.4V37.575ZM24.55 34.025L26.6 32L24.55 29.975C24.3667 30.275 24.2292 30.5917 24.1375 30.925C24.0458 31.2583 24 31.6167 24 32C24 32.3833 24.0458 32.7417 24.1375 33.075C24.2292 33.4083 24.3667 33.725 24.55 34.025ZM28 36C28.3833 36 28.7417 35.9542 29.075 35.8625C29.4083 35.7708 29.725 35.6333 30.025 35.45L28 33.4L25.95 35.45C26.25 35.6333 26.5708 35.7708 26.9125 35.8625C27.2542 35.9542 27.6167 36 28 36ZM28 30.575L30.025 28.55C29.725 28.3667 29.4083 28.2292 29.075 28.1375C28.7417 28.0458 28.3833 28 28 28C27.6167 28 27.2583 28.0458 26.925 28.1375C26.5917 28.2292 26.275 28.3667 25.975 28.55L28 30.575ZM31.45 34.025C31.6333 33.725 31.7708 33.4083 31.8625 33.075C31.9542 32.7417 32 32.3833 32 32C32 31.6167 31.9542 31.2542 31.8625 30.9125C31.7708 30.5708 31.6333 30.25 31.45 29.95L29.425 31.975L31.45 34.025ZM35 37.575V26.4L32.875 28.525C33.225 29.0083 33.5 29.5458 33.7 30.1375C33.9 30.7292 34 31.35 34 32C34 32.65 33.9042 33.2708 33.7125 33.8625C33.5208 34.4542 33.25 34.9917 32.9 35.475L35 37.575ZM31.475 27.125L33.6 25H22.425L24.525 27.1C25.0083 26.75 25.5458 26.4792 26.1375 26.2875C26.7292 26.0958 27.35 26 28 26C28.65 26 29.2708 26.1 29.8625 26.3C30.4542 26.5 30.9917 26.775 31.475 27.125ZM21 41C20.45 41 19.9792 40.8042 19.5875 40.4125C19.1958 40.0208 19 39.55 19 39V25C19 24.45 19.1958 23.9792 19.5875 23.5875C19.9792 23.1958 20.45 23 21 23H35C35.55 23 36.0208 23.1958 36.4125 23.5875C36.8042 23.9792 37 24.45 37 25V39C37 39.55 36.8042 40.0208 36.4125 40.4125C36.0208 40.8042 35.55 41 35 41H21Z" fill="#0F82FF"/>
<path d="M57.0625 24.7187V23H69.0625V24.7187H64.0313V39H62.0938V24.7187H57.0625ZM71.8027 39V27H73.6465V39H71.8027ZM72.7402 25C72.3809 25 72.071 24.8776 71.8105 24.6328C71.5553 24.388 71.4277 24.0938 71.4277 23.75C71.4277 23.4063 71.5553 23.112 71.8105 22.8672C72.071 22.6224 72.3809 22.5 72.7402 22.5C73.0996 22.5 73.4069 22.6224 73.6621 22.8672C73.9225 23.112 74.0527 23.4063 74.0527 23.75C74.0527 24.0938 73.9225 24.388 73.6621 24.6328C73.4069 24.8776 73.0996 25 72.7402 25ZM82.2422 27V28.5625H76.0234V27H82.2422ZM77.8359 24.125H79.6797V35.5625C79.6797 36.0833 79.7552 36.474 79.9063 36.7344C80.0625 36.9896 80.2604 37.1615 80.5 37.25C80.7448 37.3333 81.0026 37.375 81.2734 37.375C81.4766 37.375 81.6432 37.3646 81.7734 37.3437C81.9036 37.3177 82.0078 37.2969 82.0859 37.2812L82.4609 38.9375C82.3359 38.9844 82.1615 39.0313 81.9375 39.0781C81.7135 39.1302 81.4297 39.1563 81.0859 39.1563C80.5651 39.1563 80.0547 39.0443 79.5547 38.8203C79.0599 38.5964 78.6484 38.2552 78.3203 37.7969C77.9974 37.3385 77.8359 36.7604 77.8359 36.0625V24.125ZM87.1172 23V39H85.2734V23H87.1172ZM95.5254 39.25C94.3691 39.25 93.3717 38.9948 92.5332 38.4844C91.6999 37.9688 91.0566 37.25 90.6035 36.3281C90.1556 35.401 89.9316 34.3229 89.9316 33.0938C89.9316 31.8646 90.1556 30.7812 90.6035 29.8437C91.0566 28.901 91.6868 28.1667 92.4941 27.6406C93.3066 27.1094 94.2546 26.8438 95.3379 26.8438C95.9629 26.8438 96.5801 26.9479 97.1895 27.1562C97.7988 27.3646 98.3535 27.7031 98.8535 28.1719C99.3535 28.6354 99.752 29.25 100.049 30.0156C100.346 30.7812 100.494 31.724 100.494 32.8437V33.625H91.2441V32.0312H98.6191C98.6191 31.3542 98.4837 30.75 98.2129 30.2187C97.9473 29.6875 97.5671 29.2682 97.0723 28.9609C96.5827 28.6536 96.0046 28.5 95.3379 28.5C94.6035 28.5 93.9681 28.6823 93.4316 29.0469C92.9004 29.4062 92.4915 29.875 92.2051 30.4531C91.9186 31.0312 91.7754 31.651 91.7754 32.3125V33.375C91.7754 34.2813 91.9316 35.0495 92.2441 35.6797C92.5618 36.3047 93.002 36.7812 93.5645 37.1094C94.127 37.4323 94.7806 37.5938 95.5254 37.5938C96.0098 37.5938 96.4473 37.526 96.8379 37.3906C97.2337 37.25 97.5749 37.0417 97.8613 36.7656C98.1478 36.4844 98.3691 36.1354 98.5254 35.7187L100.307 36.2188C100.119 36.8229 99.804 37.3542 99.3613 37.8125C98.9186 38.2656 98.3717 38.6198 97.7207 38.875C97.0697 39.125 96.3379 39.25 95.5254 39.25Z" fill="#191C21"/>
</svg>
