<svg width="360" height="64" viewBox="0 0 360 64" fill="none" xmlns="http://www.w3.org/2000/svg">
<rect width="360" height="64" fill="#FDFBFF"/>
<path d="M22.4 39H33.575L31.475 36.9C30.9917 37.25 30.4542 37.5208 29.8625 37.7125C29.2708 37.9042 28.65 38 28 38C27.35 38 26.7292 37.9 26.1375 37.7C25.5458 37.5 25.0083 37.225 24.525 36.875L22.4 39ZM21 37.575L23.1 35.475C22.75 34.9917 22.4792 34.4542 22.2875 33.8625C22.0958 33.2708 22 32.65 22 32C22 31.35 22.1 30.7292 22.3 30.1375C22.5 29.5458 22.775 29.0083 23.125 28.525L21 26.4V37.575ZM24.55 34.025L26.6 32L24.55 29.975C24.3667 30.275 24.2292 30.5917 24.1375 30.925C24.0458 31.2583 24 31.6167 24 32C24 32.3833 24.0458 32.7417 24.1375 33.075C24.2292 33.4083 24.3667 33.725 24.55 34.025ZM28 36C28.3833 36 28.7417 35.9542 29.075 35.8625C29.4083 35.7708 29.725 35.6333 30.025 35.45L28 33.4L25.95 35.45C26.25 35.6333 26.5708 35.7708 26.9125 35.8625C27.2542 35.9542 27.6167 36 28 36ZM28 30.575L30.025 28.55C29.725 28.3667 29.4083 28.2292 29.075 28.1375C28.7417 28.0458 28.3833 28 28 28C27.6167 28 27.2583 28.0458 26.925 28.1375C26.5917 28.2292 26.275 28.3667 25.975 28.55L28 30.575ZM31.45 34.025C31.6333 33.725 31.7708 33.4083 31.8625 33.075C31.9542 32.7417 32 32.3833 32 32C32 31.6167 31.9542 31.2542 31.8625 30.9125C31.7708 30.5708 31.6333 30.25 31.45 29.95L29.425 31.975L31.45 34.025ZM35 37.575V26.4L32.875 28.525C33.225 29.0083 33.5 29.5458 33.7 30.1375C33.9 30.7292 34 31.35 34 32C34 32.65 33.9042 33.2708 33.7125 33.8625C33.5208 34.4542 33.25 34.9917 32.9 35.475L35 37.575ZM31.475 27.125L33.6 25H22.425L24.525 27.1C25.0083 26.75 25.5458 26.4792 26.1375 26.2875C26.7292 26.0958 27.35 26 28 26C28.65 26 29.2708 26.1 29.8625 26.3C30.4542 26.5 30.9917 26.775 31.475 27.125ZM21 41C20.45 41 19.9792 40.8042 19.5875 40.4125C19.1958 40.0208 19 39.55 19 39V25C19 24.45 19.1958 23.9792 19.5875 23.5875C19.9792 23.1958 20.45 23 21 23H35C35.55 23 36.0208 23.1958 36.4125 23.5875C36.8042 23.9792 37 24.45 37 25V39C37 39.55 36.8042 40.0208 36.4125 40.4125C36.0208 40.8042 35.55 41 35 41H21Z" fill="#0F82FF"/>
<path d="M57.0625 24.7187V23H69.0625V24.7187H64.0313V39H62.0938V24.7187H57.0625ZM71.8027 39V27H73.6465V39H71.8027ZM72.7402 25C72.3809 25 72.071 24.8776 71.8105 24.6328C71.5553 24.388 71.4277 24.0938 71.4277 23.75C71.4277 23.4063 71.5553 23.112 71.8105 22.8672C72.071 22.6224 72.3809 22.5 72.7402 22.5C73.0996 22.5 73.4069 22.6224 73.6621 22.8672C73.9225 23.112 74.0527 23.4063 74.0527 23.75C74.0527 24.0938 73.9225 24.388 73.6621 24.6328C73.4069 24.8776 73.0996 25 72.7402 25ZM82.2422 27V28.5625H76.0234V27H82.2422ZM77.8359 24.125H79.6797V35.5625C79.6797 36.0833 79.7552 36.474 79.9063 36.7344C80.0625 36.9896 80.2604 37.1615 80.5 37.25C80.7448 37.3333 81.0026 37.375 81.2734 37.375C81.4766 37.375 81.6432 37.3646 81.7734 37.3437C81.9036 37.3177 82.0078 37.2969 82.0859 37.2812L82.4609 38.9375C82.3359 38.9844 82.1615 39.0313 81.9375 39.0781C81.7135 39.1302 81.4297 39.1563 81.0859 39.1563C80.5651 39.1563 80.0547 39.0443 79.5547 38.8203C79.0599 38.5964 78.6484 38.2552 78.3203 37.7969C77.9974 37.3385 77.8359 36.7604 77.8359 36.0625V24.125ZM87.1172 23V39H85.2734V23H87.1172ZM95.5254 39.25C94.3691 39.25 93.3717 38.9948 92.5332 38.4844C91.6999 37.9688 91.0566 37.25 90.6035 36.3281C90.1556 35.401 89.9316 34.3229 89.9316 33.0938C89.9316 31.8646 90.1556 30.7812 90.6035 29.8437C91.0566 28.901 91.6868 28.1667 92.4941 27.6406C93.3066 27.1094 94.2546 26.8438 95.3379 26.8438C95.9629 26.8438 96.5801 26.9479 97.1895 27.1562C97.7988 27.3646 98.3535 27.7031 98.8535 28.1719C99.3535 28.6354 99.752 29.25 100.049 30.0156C100.346 30.7812 100.494 31.724 100.494 32.8437V33.625H91.2441V32.0312H98.6191C98.6191 31.3542 98.4837 30.75 98.2129 30.2187C97.9473 29.6875 97.5671 29.2682 97.0723 28.9609C96.5827 28.6536 96.0046 28.5 95.3379 28.5C94.6035 28.5 93.9681 28.6823 93.4316 29.0469C92.9004 29.4062 92.4915 29.875 92.2051 30.4531C91.9186 31.0312 91.7754 31.651 91.7754 32.3125V33.375C91.7754 34.2813 91.9316 35.0495 92.2441 35.6797C92.5618 36.3047 93.002 36.7812 93.5645 37.1094C94.127 37.4323 94.7806 37.5938 95.5254 37.5938C96.0098 37.5938 96.4473 37.526 96.8379 37.3906C97.2337 37.25 97.5749 37.0417 97.8613 36.7656C98.1478 36.4844 98.3691 36.1354 98.5254 35.7187L100.307 36.2188C100.119 36.8229 99.804 37.3542 99.3613 37.8125C98.9186 38.2656 98.3717 38.6198 97.7207 38.875C97.0697 39.125 96.3379 39.25 95.5254 39.25Z" fill="#191C21"/>
<path d="M230.4 39H241.575L239.475 36.9C238.992 37.25 238.454 37.5208 237.863 37.7125C237.271 37.9042 236.65 38 236 38C235.35 38 234.729 37.9 234.138 37.7C233.546 37.5 233.008 37.225 232.525 36.875L230.4 39ZM229 37.575L231.1 35.475C230.75 34.9917 230.479 34.4542 230.288 33.8625C230.096 33.2708 230 32.65 230 32C230 31.35 230.1 30.7292 230.3 30.1375C230.5 29.5458 230.775 29.0083 231.125 28.525L229 26.4V37.575ZM232.55 34.025L234.6 32L232.55 29.975C232.367 30.275 232.229 30.5917 232.138 30.925C232.046 31.2583 232 31.6167 232 32C232 32.3833 232.046 32.7417 232.138 33.075C232.229 33.4083 232.367 33.725 232.55 34.025ZM236 36C236.383 36 236.742 35.9542 237.075 35.8625C237.408 35.7708 237.725 35.6333 238.025 35.45L236 33.4L233.95 35.45C234.25 35.6333 234.571 35.7708 234.912 35.8625C235.254 35.9542 235.617 36 236 36ZM236 30.575L238.025 28.55C237.725 28.3667 237.408 28.2292 237.075 28.1375C236.742 28.0458 236.383 28 236 28C235.617 28 235.258 28.0458 234.925 28.1375C234.592 28.2292 234.275 28.3667 233.975 28.55L236 30.575ZM239.45 34.025C239.633 33.725 239.771 33.4083 239.863 33.075C239.954 32.7417 240 32.3833 240 32C240 31.6167 239.954 31.2542 239.863 30.9125C239.771 30.5708 239.633 30.25 239.45 29.95L237.425 31.975L239.45 34.025ZM243 37.575V26.4L240.875 28.525C241.225 29.0083 241.5 29.5458 241.7 30.1375C241.9 30.7292 242 31.35 242 32C242 32.65 241.904 33.2708 241.713 33.8625C241.521 34.4542 241.25 34.9917 240.9 35.475L243 37.575ZM239.475 27.125L241.6 25H230.425L232.525 27.1C233.008 26.75 233.546 26.4792 234.138 26.2875C234.729 26.0958 235.35 26 236 26C236.65 26 237.271 26.1 237.863 26.3C238.454 26.5 238.992 26.775 239.475 27.125ZM229 41C228.45 41 227.979 40.8042 227.588 40.4125C227.196 40.0208 227 39.55 227 39V25C227 24.45 227.196 23.9792 227.588 23.5875C227.979 23.1958 228.45 23 229 23H243C243.55 23 244.021 23.1958 244.413 23.5875C244.804 23.9792 245 24.45 245 25V39C245 39.55 244.804 40.0208 244.413 40.4125C244.021 40.8042 243.55 41 243 41H229Z" fill="#0F82FF"/>
<path d="M278.4 39H289.575L287.475 36.9C286.992 37.25 286.454 37.5208 285.863 37.7125C285.271 37.9042 284.65 38 284 38C283.35 38 282.729 37.9 282.138 37.7C281.546 37.5 281.008 37.225 280.525 36.875L278.4 39ZM277 37.575L279.1 35.475C278.75 34.9917 278.479 34.4542 278.288 33.8625C278.096 33.2708 278 32.65 278 32C278 31.35 278.1 30.7292 278.3 30.1375C278.5 29.5458 278.775 29.0083 279.125 28.525L277 26.4V37.575ZM280.55 34.025L282.6 32L280.55 29.975C280.367 30.275 280.229 30.5917 280.138 30.925C280.046 31.2583 280 31.6167 280 32C280 32.3833 280.046 32.7417 280.138 33.075C280.229 33.4083 280.367 33.725 280.55 34.025ZM284 36C284.383 36 284.742 35.9542 285.075 35.8625C285.408 35.7708 285.725 35.6333 286.025 35.45L284 33.4L281.95 35.45C282.25 35.6333 282.571 35.7708 282.912 35.8625C283.254 35.9542 283.617 36 284 36ZM284 30.575L286.025 28.55C285.725 28.3667 285.408 28.2292 285.075 28.1375C284.742 28.0458 284.383 28 284 28C283.617 28 283.258 28.0458 282.925 28.1375C282.592 28.2292 282.275 28.3667 281.975 28.55L284 30.575ZM287.45 34.025C287.633 33.725 287.771 33.4083 287.863 33.075C287.954 32.7417 288 32.3833 288 32C288 31.6167 287.954 31.2542 287.863 30.9125C287.771 30.5708 287.633 30.25 287.45 29.95L285.425 31.975L287.45 34.025ZM291 37.575V26.4L288.875 28.525C289.225 29.0083 289.5 29.5458 289.7 30.1375C289.9 30.7292 290 31.35 290 32C290 32.65 289.904 33.2708 289.713 33.8625C289.521 34.4542 289.25 34.9917 288.9 35.475L291 37.575ZM287.475 27.125L289.6 25H278.425L280.525 27.1C281.008 26.75 281.546 26.4792 282.138 26.2875C282.729 26.0958 283.35 26 284 26C284.65 26 285.271 26.1 285.863 26.3C286.454 26.5 286.992 26.775 287.475 27.125ZM277 41C276.45 41 275.979 40.8042 275.588 40.4125C275.196 40.0208 275 39.55 275 39V25C275 24.45 275.196 23.9792 275.588 23.5875C275.979 23.1958 276.45 23 277 23H291C291.55 23 292.021 23.1958 292.413 23.5875C292.804 23.9792 293 24.45 293 25V39C293 39.55 292.804 40.0208 292.413 40.4125C292.021 40.8042 291.55 41 291 41H277Z" fill="#0F82FF"/>
<path d="M326.4 39H337.575L335.475 36.9C334.992 37.25 334.454 37.5208 333.863 37.7125C333.271 37.9042 332.65 38 332 38C331.35 38 330.729 37.9 330.138 37.7C329.546 37.5 329.008 37.225 328.525 36.875L326.4 39ZM325 37.575L327.1 35.475C326.75 34.9917 326.479 34.4542 326.288 33.8625C326.096 33.2708 326 32.65 326 32C326 31.35 326.1 30.7292 326.3 30.1375C326.5 29.5458 326.775 29.0083 327.125 28.525L325 26.4V37.575ZM328.55 34.025L330.6 32L328.55 29.975C328.367 30.275 328.229 30.5917 328.138 30.925C328.046 31.2583 328 31.6167 328 32C328 32.3833 328.046 32.7417 328.138 33.075C328.229 33.4083 328.367 33.725 328.55 34.025ZM332 36C332.383 36 332.742 35.9542 333.075 35.8625C333.408 35.7708 333.725 35.6333 334.025 35.45L332 33.4L329.95 35.45C330.25 35.6333 330.571 35.7708 330.912 35.8625C331.254 35.9542 331.617 36 332 36ZM332 30.575L334.025 28.55C333.725 28.3667 333.408 28.2292 333.075 28.1375C332.742 28.0458 332.383 28 332 28C331.617 28 331.258 28.0458 330.925 28.1375C330.592 28.2292 330.275 28.3667 329.975 28.55L332 30.575ZM335.45 34.025C335.633 33.725 335.771 33.4083 335.863 33.075C335.954 32.7417 336 32.3833 336 32C336 31.6167 335.954 31.2542 335.863 30.9125C335.771 30.5708 335.633 30.25 335.45 29.95L333.425 31.975L335.45 34.025ZM339 37.575V26.4L336.875 28.525C337.225 29.0083 337.5 29.5458 337.7 30.1375C337.9 30.7292 338 31.35 338 32C338 32.65 337.904 33.2708 337.713 33.8625C337.521 34.4542 337.25 34.9917 336.9 35.475L339 37.575ZM335.475 27.125L337.6 25H326.425L328.525 27.1C329.008 26.75 329.546 26.4792 330.138 26.2875C330.729 26.0958 331.35 26 332 26C332.65 26 333.271 26.1 333.863 26.3C334.454 26.5 334.992 26.775 335.475 27.125ZM325 41C324.45 41 323.979 40.8042 323.588 40.4125C323.196 40.0208 323 39.55 323 39V25C323 24.45 323.196 23.9792 323.588 23.5875C323.979 23.1958 324.45 23 325 23H339C339.55 23 340.021 23.1958 340.413 23.5875C340.804 23.9792 341 24.45 341 25V39C341 39.55 340.804 40.0208 340.413 40.4125C340.021 40.8042 339.55 41 339 41H325Z" fill="#0F82FF"/>
</svg>
