<svg width="360" height="144" viewBox="0 0 360 144" fill="none" xmlns="http://www.w3.org/2000/svg">
<rect width="360" height="144" fill="#FDFBFF"/>
<path d="M17.1591 95.4205V93.5455H30.25V95.4205H24.7614V111H22.6477V95.4205H17.1591ZM33.2393 111V97.9091H35.2507V111H33.2393ZM34.2621 95.7273C33.87 95.7273 33.532 95.5938 33.2479 95.3267C32.9695 95.0597 32.8303 94.7386 32.8303 94.3636C32.8303 93.9886 32.9695 93.6676 33.2479 93.4006C33.532 93.1335 33.87 93 34.2621 93C34.6541 93 34.9893 93.1335 35.2678 93.4006C35.5518 93.6676 35.6939 93.9886 35.6939 94.3636C35.6939 94.7386 35.5518 95.0597 35.2678 95.3267C34.9893 95.5938 34.6541 95.7273 34.2621 95.7273ZM44.6278 97.9091V99.6136H37.8438V97.9091H44.6278ZM39.821 94.7727H41.8324V107.25C41.8324 107.818 41.9148 108.244 42.0795 108.528C42.25 108.807 42.4659 108.994 42.7273 109.091C42.9943 109.182 43.2756 109.227 43.571 109.227C43.7926 109.227 43.9744 109.216 44.1165 109.193C44.2585 109.165 44.3722 109.142 44.4574 109.125L44.8665 110.932C44.7301 110.983 44.5398 111.034 44.2955 111.085C44.0511 111.142 43.7415 111.17 43.3665 111.17C42.7983 111.17 42.2415 111.048 41.696 110.804C41.1563 110.56 40.7074 110.188 40.3494 109.688C39.9972 109.188 39.821 108.557 39.821 107.795V94.7727ZM49.946 93.5455V111H47.9347V93.5455H49.946ZM59.1186 111.273C57.8572 111.273 56.7692 110.994 55.8544 110.438C54.9453 109.875 54.2436 109.091 53.7493 108.085C53.2607 107.074 53.0163 105.898 53.0163 104.557C53.0163 103.216 53.2607 102.034 53.7493 101.011C54.2436 99.983 54.9311 99.1818 55.8118 98.608C56.6982 98.0284 57.7322 97.7386 58.9141 97.7386C59.5959 97.7386 60.2692 97.8523 60.9339 98.0795C61.5987 98.3068 62.2038 98.6761 62.7493 99.1875C63.2947 99.6932 63.7294 100.364 64.0533 101.199C64.3771 102.034 64.5391 103.062 64.5391 104.284V105.136H54.4482V103.398H62.4936C62.4936 102.659 62.3459 102 62.0504 101.42C61.7607 100.841 61.3459 100.384 60.8061 100.048C60.272 99.7131 59.6413 99.5455 58.9141 99.5455C58.1129 99.5455 57.4197 99.7443 56.8345 100.142C56.255 100.534 55.8089 101.045 55.4964 101.676C55.1839 102.307 55.0277 102.983 55.0277 103.705V104.864C55.0277 105.852 55.1982 106.69 55.5391 107.378C55.8857 108.06 56.3658 108.58 56.9794 108.938C57.593 109.29 58.3061 109.466 59.1186 109.466C59.647 109.466 60.1243 109.392 60.5504 109.244C60.9822 109.091 61.3544 108.864 61.6669 108.562C61.9794 108.256 62.2209 107.875 62.3913 107.42L64.3345 107.966C64.13 108.625 63.7862 109.205 63.3033 109.705C62.8203 110.199 62.2237 110.585 61.5135 110.864C60.8033 111.136 60.005 111.273 59.1186 111.273Z" fill="#191C21"/>
</svg>
