<svg width="360" height="144" viewBox="0 0 360 144" fill="none" xmlns="http://www.w3.org/2000/svg">
<rect width="360" height="144" fill="#FDFBFF"/>
<path d="M22.4 39H33.575L31.475 36.9C30.9917 37.25 30.4542 37.5208 29.8625 37.7125C29.2708 37.9042 28.65 38 28 38C27.35 38 26.7292 37.9 26.1375 37.7C25.5458 37.5 25.0083 37.225 24.525 36.875L22.4 39ZM21 37.575L23.1 35.475C22.75 34.9917 22.4792 34.4542 22.2875 33.8625C22.0958 33.2708 22 32.65 22 32C22 31.35 22.1 30.7292 22.3 30.1375C22.5 29.5458 22.775 29.0083 23.125 28.525L21 26.4V37.575ZM24.55 34.025L26.6 32L24.55 29.975C24.3667 30.275 24.2292 30.5917 24.1375 30.925C24.0458 31.2583 24 31.6167 24 32C24 32.3833 24.0458 32.7417 24.1375 33.075C24.2292 33.4083 24.3667 33.725 24.55 34.025ZM28 36C28.3833 36 28.7417 35.9542 29.075 35.8625C29.4083 35.7708 29.725 35.6333 30.025 35.45L28 33.4L25.95 35.45C26.25 35.6333 26.5708 35.7708 26.9125 35.8625C27.2542 35.9542 27.6167 36 28 36ZM28 30.575L30.025 28.55C29.725 28.3667 29.4083 28.2292 29.075 28.1375C28.7417 28.0458 28.3833 28 28 28C27.6167 28 27.2583 28.0458 26.925 28.1375C26.5917 28.2292 26.275 28.3667 25.975 28.55L28 30.575ZM31.45 34.025C31.6333 33.725 31.7708 33.4083 31.8625 33.075C31.9542 32.7417 32 32.3833 32 32C32 31.6167 31.9542 31.2542 31.8625 30.9125C31.7708 30.5708 31.6333 30.25 31.45 29.95L29.425 31.975L31.45 34.025ZM35 37.575V26.4L32.875 28.525C33.225 29.0083 33.5 29.5458 33.7 30.1375C33.9 30.7292 34 31.35 34 32C34 32.65 33.9042 33.2708 33.7125 33.8625C33.5208 34.4542 33.25 34.9917 32.9 35.475L35 37.575ZM31.475 27.125L33.6 25H22.425L24.525 27.1C25.0083 26.75 25.5458 26.4792 26.1375 26.2875C26.7292 26.0958 27.35 26 28 26C28.65 26 29.2708 26.1 29.8625 26.3C30.4542 26.5 30.9917 26.775 31.475 27.125ZM21 41C20.45 41 19.9792 40.8042 19.5875 40.4125C19.1958 40.0208 19 39.55 19 39V25C19 24.45 19.1958 23.9792 19.5875 23.5875C19.9792 23.1958 20.45 23 21 23H35C35.55 23 36.0208 23.1958 36.4125 23.5875C36.8042 23.9792 37 24.45 37 25V39C37 39.55 36.8042 40.0208 36.4125 40.4125C36.0208 40.8042 35.55 41 35 41H21Z" fill="#0F82FF"/>
<path d="M17.1591 95.4205V93.5455H30.25V95.4205H24.7614V111H22.6477V95.4205H17.1591ZM33.2393 111V97.9091H35.2507V111H33.2393ZM34.2621 95.7273C33.87 95.7273 33.532 95.5938 33.2479 95.3267C32.9695 95.0597 32.8303 94.7386 32.8303 94.3636C32.8303 93.9886 32.9695 93.6676 33.2479 93.4006C33.532 93.1335 33.87 93 34.2621 93C34.6541 93 34.9893 93.1335 35.2678 93.4006C35.5518 93.6676 35.6939 93.9886 35.6939 94.3636C35.6939 94.7386 35.5518 95.0597 35.2678 95.3267C34.9893 95.5938 34.6541 95.7273 34.2621 95.7273ZM44.6278 97.9091V99.6136H37.8438V97.9091H44.6278ZM39.821 94.7727H41.8324V107.25C41.8324 107.818 41.9148 108.244 42.0795 108.528C42.25 108.807 42.4659 108.994 42.7273 109.091C42.9943 109.182 43.2756 109.227 43.571 109.227C43.7926 109.227 43.9744 109.216 44.1165 109.193C44.2585 109.165 44.3722 109.142 44.4574 109.125L44.8665 110.932C44.7301 110.983 44.5398 111.034 44.2955 111.085C44.0511 111.142 43.7415 111.17 43.3665 111.17C42.7983 111.17 42.2415 111.048 41.696 110.804C41.1563 110.56 40.7074 110.188 40.3494 109.688C39.9972 109.188 39.821 108.557 39.821 107.795V94.7727ZM49.946 93.5455V111H47.9347V93.5455H49.946ZM59.1186 111.273C57.8572 111.273 56.7692 110.994 55.8544 110.438C54.9453 109.875 54.2436 109.091 53.7493 108.085C53.2607 107.074 53.0163 105.898 53.0163 104.557C53.0163 103.216 53.2607 102.034 53.7493 101.011C54.2436 99.983 54.9311 99.1818 55.8118 98.608C56.6982 98.0284 57.7322 97.7386 58.9141 97.7386C59.5959 97.7386 60.2692 97.8523 60.9339 98.0795C61.5987 98.3068 62.2038 98.6761 62.7493 99.1875C63.2947 99.6932 63.7294 100.364 64.0533 101.199C64.3771 102.034 64.5391 103.062 64.5391 104.284V105.136H54.4482V103.398H62.4936C62.4936 102.659 62.3459 102 62.0504 101.42C61.7607 100.841 61.3459 100.384 60.8061 100.048C60.272 99.7131 59.6413 99.5455 58.9141 99.5455C58.1129 99.5455 57.4197 99.7443 56.8345 100.142C56.255 100.534 55.8089 101.045 55.4964 101.676C55.1839 102.307 55.0277 102.983 55.0277 103.705V104.864C55.0277 105.852 55.1982 106.69 55.5391 107.378C55.8857 108.06 56.3658 108.58 56.9794 108.938C57.593 109.29 58.3061 109.466 59.1186 109.466C59.647 109.466 60.1243 109.392 60.5504 109.244C60.9822 109.091 61.3544 108.864 61.6669 108.562C61.9794 108.256 62.2209 107.875 62.3913 107.42L64.3345 107.966C64.13 108.625 63.7862 109.205 63.3033 109.705C62.8203 110.199 62.2237 110.585 61.5135 110.864C60.8033 111.136 60.005 111.273 59.1186 111.273Z" fill="#191C21"/>
</svg>
